<?xml version="1.0" encoding="UTF-8"?>
<svg version="1.1" width="304.973854px" height="89px" viewBox="0 0 304.973853946393 89.0"
    xmlns="http://www.w3.org/2000/svg"
    xmlns:xlink="http://www.w3.org/1999/xlink">
    <defs>
        <clipPath id="i0">
            <path d="M15.3133386,0 C20.8626677,0 24.1641673,1.86148382 26.9037096,4.53078137 L22.7943962,9.27229676 C20.5114444,7.20007893 18.2284925,5.97079716 15.2782163,5.97079716 C10.3259669,5.97079716 6.74348856,10.0801105 6.74348856,15.1026046 L6.74348856,15.1728493 C6.74348856,20.1953433 10.2205998,24.4100237 15.2782163,24.4100237 C18.6499605,24.4100237 20.687056,23.0753749 23.0051302,20.9680347 L27.1144436,25.1124704 C24.0939227,28.3437253 20.7221784,30.3458365 15.0674822,30.3458365 C6.39226519,30.3808208 0,23.707577 0,15.2782163 L0,15.2079716 C0,6.84885556 6.28689818,0 15.3133386,0 Z"></path>
        </clipPath>
        <clipPath id="i1">
            <path d="M11.1337806,1.77635684e-15 C18.6499605,1.77635684e-15 22.0919495,5.83030781 22.0919495,12.222573 C22.0919495,12.7142857 22.0568272,13.3113654 22.0217048,13.9084451 L6.35714286,13.9084451 C6.98934491,16.7884767 8.99131807,18.2987372 11.8713496,18.2987372 C14.0138122,18.2987372 15.5591949,17.6314128 17.3153118,15.980663 L20.9680347,19.2119179 C18.8606946,21.8109708 15.8401736,23.3914759 11.7659826,23.3914759 C5.02249408,23.3914759 0,18.6499605 0,11.7659826 L0,11.695738 C0,5.26835043 4.56590371,1.77635684e-15 11.1337806,1.77635684e-15 Z M11.1337806,5.09273875 C8.49960537,5.09273875 6.77861089,6.98934491 6.25177585,9.86937648 L15.875296,9.86937648 C15.4889503,7.02446725 13.8030781,5.09273875 11.1337806,5.09273875 Z"></path>
        </clipPath>
        <clipPath id="i2">
            <path d="M13.5923441,0.0105266556 L13.5923441,6.68377054 L13.2411208,6.68377054 C8.99131807,6.68377054 6.39226519,9.24770108 6.39226519,14.6214185 L6.39226519,22.9454122 L0,22.9454122 L0,0.43199469 L6.42738753,0.43199469 L6.42738753,4.96277606 C7.72691397,1.87201048 9.83425414,-0.165085026 13.5923441,0.0105266556 Z"></path>
        </clipPath>
        <clipPath id="i3">
            <path d="M6.39226519,0 L6.39226519,11.3796369 C7.93764799,9.27229676 10.0801105,7.72691397 13.4167324,7.72691397 C18.6499605,7.72691397 23.6724546,11.8362273 23.6724546,19.3524073 L23.6724546,19.4226519 C23.6724546,26.9388319 18.7553275,31.0481452 13.4167324,31.0481452 C10.0098658,31.0481452 7.93764799,29.5027624 6.39226519,27.6764009 L6.39226519,30.6266772 L0,30.6266772 L0,0 L6.39226519,0 Z M11.7659826,13.1357537 C8.78058406,13.1357537 6.32202052,15.5943173 6.32202052,19.3524073 L6.32202052,19.4226519 C6.32202052,23.1456196 8.81570639,25.6393054 11.7659826,25.6393054 C14.7513812,25.6393054 17.2801894,23.1807419 17.2801894,19.4226519 L17.2801894,19.3524073 C17.2801894,15.6294396 14.7513812,13.1357537 11.7659826,13.1357537 Z"></path>
        </clipPath>
        <clipPath id="i4">
            <path d="M13.5923441,0.0105266556 L13.5923441,6.68377054 L13.2411208,6.68377054 C8.99131807,6.68377054 6.39226519,9.24770108 6.39226519,14.6214185 L6.39226519,22.9454122 L0,22.9454122 L0,0.43199469 L6.42738753,0.43199469 L6.42738753,4.96277606 C7.72691397,1.87201048 9.83425414,-0.165085026 13.5923441,0.0105266556 Z"></path>
        </clipPath>
        <clipPath id="i5">
            <path d="M6.39226519,0 L6.39226519,12.538674 C6.39226519,15.5591949 7.83228098,17.1045777 10.2557222,17.1045777 C12.6791634,17.1045777 14.2596685,15.5591949 14.2596685,12.538674 L14.2596685,0 L20.6519337,0 L20.6519337,22.4782952 L14.2596685,22.4782952 L14.2596685,19.2821626 C12.7845304,21.1787687 10.8879242,22.8997632 7.6566693,22.8997632 C2.8097869,22.9348856 0,19.738753 0,14.5757695 L0,0 L6.39226519,0 Z"></path>
        </clipPath>
        <clipPath id="i6">
            <path d="M26.7280979,0 C31.4696133,0 34.3145225,2.84490923 34.3145225,8.25374901 L34.3145225,22.8997632 L27.9222573,22.8997632 L27.9222573,10.3610892 C27.9222573,7.34056827 26.5876085,5.79518548 24.1992897,5.79518548 C21.8109708,5.79518548 20.3358327,7.34056827 20.3358327,10.3610892 L20.3358327,22.8997632 L13.9786898,22.8997632 L13.9786898,10.3610892 C13.9786898,7.34056827 12.644041,5.79518548 10.2557222,5.79518548 C7.86740331,5.79518548 6.39226519,7.34056827 6.39226519,10.3610892 L6.39226519,22.8997632 L0,22.8997632 L0,0.421468035 L6.39226519,0.421468035 L6.39226519,3.61760063 C7.86740331,1.72099448 9.79913181,0 13.0303867,0 C15.980663,0 18.1933702,1.29952644 19.3524073,3.5824783 C21.3192581,1.2644041 23.6724546,0 26.7280979,0 Z"></path>
        </clipPath>
        <clipPath id="i7">
            <path d="M21.5651144,0 C23.6022099,5.02249408 24.7261247,10.5367009 24.7261247,16.296764 C24.7261247,22.3026835 23.4968429,28.0276243 21.2841358,33.2257301 L0,24.1992897 C1.01854775,21.8109708 1.61562747,19.1065509 1.61562747,16.296764 C1.61562747,13.5923441 1.08879242,11.0284136 0.140489345,8.67521705 L21.5651144,0 Z"></path>
        </clipPath>
        <radialGradient id="i8" cx="-17.7731983px" cy="18.397009px" r="44.0006791px" gradientUnits="userSpaceOnUse">
            <stop stop-color="#6633FF" offset="31.74%"></stop>
            <stop stop-color="#8F69FF" offset="44.48%"></stop>
            <stop stop-color="#B79FFF" offset="58.28%"></stop>
            <stop stop-color="#D6C8FF" offset="71.22%"></stop>
            <stop stop-color="#ECE6FF" offset="82.88%"></stop>
            <stop stop-color="#FAF9FF" offset="92.86%"></stop>
            <stop stop-color="#FFFFFF" offset="100%"></stop>
        </radialGradient>
        <clipPath id="i9">
            <path d="M43.4178161,0 C49.4237356,0 55.1486764,1.22928177 60.3467821,3.44198895 C65.5448879,5.6195738 70.1810363,8.78058406 74.1147379,12.7142857 C78.1889289,16.7884767 81.4553062,21.6704815 83.6680134,27.1144436 L62.2433883,35.7896606 C61.2248405,33.2257301 59.6794577,30.9427782 57.7828516,29.0461721 C55.9564901,27.1846882 53.7789052,25.7095501 51.355464,24.6910024 C48.8969005,23.6373323 46.227603,23.0753749 43.4178161,23.0753749 C40.7133962,23.0753749 38.1494656,23.6022099 35.7962691,24.550513 C33.2323386,25.5690608 30.9493867,27.1144436 29.0527805,29.0110497 C27.1912967,30.8374112 25.7161586,33.0149961 24.6976109,35.4384373 L24.6624885,35.4384373 C23.6790631,37.7916338 23.1171057,40.3555643 23.0819834,43.0248619 C23.046861,45.8346488 23.5736961,48.5039463 24.5571215,50.9625099 L24.5219992,51.0327545 L24.5571215,50.9976322 C25.5756693,53.5615627 27.1210521,55.8445146 29.0176582,57.7411208 C30.8440197,59.6026046 33.0216045,61.0777427 35.4450457,62.0962904 C37.9036093,63.1499605 40.5729068,63.7119179 43.3826937,63.7119179 C46.0871136,63.7119179 48.6510442,63.1850829 51.0042407,62.2367798 C53.5681712,61.218232 55.8511231,59.6728493 57.7477292,57.7762431 C59.5740907,55.9498816 61.0843512,53.7722968 62.1028989,51.2786109 L83.3870347,60.3050513 C81.2094498,65.5031571 78.0484396,70.1393054 74.1147379,74.0730071 C70.0405469,78.1471981 65.1585422,81.4135754 59.7145801,83.6262826 C54.692086,85.6633781 49.1778792,86.7872928 43.4178161,86.7872928 C37.4118966,86.7872928 31.6869558,85.558011 26.48885,83.3453039 C21.2907442,81.167719 16.6545959,78.0067088 12.7208942,74.0730071 C8.6467032,69.9988161 5.38032593,65.1168114 3.16761875,59.6728493 L2.92869054,59.0666932 C0.972992292,53.9961757 -0.0947059468,48.4485611 0.00660848467,42.6736385 C0.0768531571,36.9135754 1.30613493,31.4344909 3.4134751,26.4471192 L3.44859743,26.4471192 C5.62618228,21.2841358 8.82231488,16.612865 12.7208942,12.7142857 C16.7950852,8.64009471 21.6770899,5.37371744 27.1210521,3.16101026 C32.1435461,1.12391476 37.6577529,0 43.4178161,0 Z"></path>
        </clipPath>
        <linearGradient id="i10" x1="-0.0457237963px" y1="43.4241326px" x2="83.6590221px" y2="43.4241326px" gradientUnits="userSpaceOnUse">
            <stop stop-color="#6944FF" offset="0%"></stop>
            <stop stop-color="#2592FB" offset="100%"></stop>
        </linearGradient>
        <clipPath id="i11">
            <path d="M20.3358327,0 C23.1456196,0 25.8500395,0.597079716 28.2734807,1.61562747 C30.6969219,2.66929755 32.8745067,4.14443567 34.7008682,5.97079716 C36.035517,7.30544594 37.1945541,8.81570639 38.1077348,10.4664562 C38.4940805,11.2040253 38.8453039,11.9415943 39.1614049,12.7142857 C39.3370166,13.1708761 39.5126283,13.5923441 39.6531176,14.0489345 L40.425809,17.3504341 L43.4463299,30.0998421 L38.2482242,30.0998421 L38.2482242,40.109708 C38.2482242,41.8658248 36.773086,43.2355959 35.0520916,43.1302289 L13.2059984,41.8658248 L12.32794,38.9857932 C9.93962115,37.9672455 7.79715864,36.4921073 6.00591949,34.7008682 C4.10931334,32.804262 2.56393054,30.4861878 1.54538279,27.9573796 C0.526835043,25.4988161 0,22.7943962 0,19.949487 C0.0351223362,17.2450671 0.597079716,14.6811365 1.58050513,12.3630624 L1.61562747,12.3630624 C2.66929755,9.93962115 4.14443567,7.76203631 5.97079716,5.93567482 C7.86740331,4.03906867 10.1854775,2.49368587 12.7142857,1.47513812 C15.0674822,0.526835043 17.6314128,0 20.3358327,0 Z"></path>
        </clipPath>
        <clipPath id="i12">
            <path d="M17.69,6.999 L0.14161703,5.98392627 C0.14161703,5.98392627 0.0713723576,5.24635721 0.0362500213,4.29805413 C0.0261185782,4.07853953 0.017286038,3.84701007 0.0108764514,3.60986661 L0.00441990454,3.32300939 L0.000721028553,3.03322064 L0.000211458928,2.74295829 C0.00860936619,0.763479376 0.270624073,-1.07701417 1.40602113,0.750698171 C2.2489572,2.12046928 4.35629738,3.27950638 6.77973858,4.19268712 C11.3522691,5.94880393 17.0501149,6.92345189 17.6805037,6.99867343 L17.69,6.999 Z"></path>
        </clipPath>
        <clipPath id="i13">
            <path d="M2.49370861,0 C3.87094585,0 4.98741723,1.11647138 4.98741723,2.49370861 C4.98741723,3.87094585 3.87094585,4.98741723 2.49370861,4.98741723 C1.11647138,4.98741723 0,3.87094585 0,2.49370861 C0,1.11647138 1.11647138,0 2.49370861,0 Z"></path>
        </clipPath>
        <clipPath id="i14">
            <path d="M8.08040285,0.994970023 C13.9107107,-1.39334884 20.3029759,0.678868997 23.7449648,5.49062906 C24.0961882,5.94721943 24.2717999,6.47405447 24.3771669,7.00088952 C24.6230232,8.51114998 23.9556988,10.0916551 22.515683,10.9697135 C21.5322576,11.5316709 20.3029759,12.1287506 18.8980824,12.5502186 C17.2122103,13.0770537 15.2453594,13.3580324 13.0677746,13.1472984 C9.76627499,12.8311973 8.08040285,15.5356172 6.81599875,18.2751594 C6.71063174,18.5210158 6.60526473,18.7668722 6.49989772,19.0127285 C5.58671698,21.049824 2.77693008,21.260558 1.61789298,19.4341965 C1.58277065,19.3639519 1.54764831,19.2937072 1.51252598,19.2234625 C1.05593561,18.3454041 0.704712243,17.397101 0.423733553,16.4136756 C-1.22701625,10.1267774 2.07448336,3.45353356 8.08040285,0.994970023 Z"></path>
        </clipPath>
        <radialGradient id="i15" cx="18.5690212px" cy="2.33155053px" r="24.3530234px" gradientUnits="userSpaceOnUse">
            <stop stop-color="#E97655" offset="0%"></stop>
            <stop stop-color="#FF26E2" offset="26.22%"></stop>
            <stop stop-color="#AA31FF" offset="68.3%"></stop>
            <stop stop-color="#3BC8F5" offset="95.76%"></stop>
        </radialGradient>
        <clipPath id="i16">
            <path d="M5.2332281,0 C6.63812155,0 7.69179163,0.351223362 8.46448303,1.01854775 C9.23717443,1.68587214 9.62352013,2.63417522 9.62352013,3.89857932 C9.62352013,5.12786109 9.23717443,6.1112865 8.46448303,6.77861089 C7.69179163,7.48105762 6.60299921,7.79715864 5.2332281,7.79715864 L1.54538279,7.79715864 L1.54538279,13.2059984 L0,13.2059984 L0,0 L5.2332281,0 Z M5.09273875,1.29952644 L1.54538279,1.29952644 L1.54538279,6.53275454 L5.09273875,6.53275454 C7.09471192,6.53275454 8.11325967,5.65469613 8.11325967,3.89857932 C8.11325967,2.17758485 7.09471192,1.29952644 5.09273875,1.29952644 Z"></path>
        </clipPath>
        <clipPath id="i17">
            <path d="M4.32004736,0 C5.19810576,0 5.93567482,0.210734017 6.60299921,0.597079716 C7.2703236,0.983425414 7.76203631,1.54538279 8.148382,2.24782952 C8.49960537,2.95027624 8.67521705,3.79321231 8.67521705,4.74151539 C8.67521705,5.68981847 8.49960537,6.53275454 8.148382,7.23520126 C7.79715864,7.93764799 7.2703236,8.49960537 6.60299921,8.88595107 C5.93567482,9.27229676 5.16298343,9.48303078 4.32004736,9.48303078 C3.44198895,9.48303078 2.66929755,9.27229676 2.0370955,8.88595107 C1.36977111,8.49960537 0.878058406,7.93764799 0.526835043,7.23520126 C0.175611681,6.53275454 0,5.68981847 0,4.74151539 C0,3.79321231 0.175611681,2.95027624 0.526835043,2.24782952 C0.878058406,1.54538279 1.40489345,0.983425414 2.0370955,0.597079716 C2.70441989,0.210734017 3.44198895,0 4.32004736,0 Z M4.32004736,1.22928177 C3.40686661,1.22928177 2.73954223,1.54538279 2.24782952,2.14246251 C1.75611681,2.73954223 1.51026046,3.61760063 1.51026046,4.70639305 C1.51026046,5.83030781 1.75611681,6.70836622 2.24782952,7.30544594 C2.73954223,7.90252565 3.40686661,8.21862668 4.32004736,8.21862668 C5.2332281,8.21862668 5.90055249,7.90252565 6.39226519,7.30544594 C6.8839779,6.70836622 7.12983425,5.83030781 7.12983425,4.70639305 C7.12983425,3.5824783 6.8839779,2.73954223 6.39226519,2.14246251 C5.90055249,1.54538279 5.2332281,1.22928177 4.32004736,1.22928177 Z"></path>
        </clipPath>
        <clipPath id="i18">
            <path d="M1.58050513,0 L4.17955801,7.34056827 L6.81373323,0 L8.11325967,0 L10.7123125,7.34056827 L13.3816101,0 L14.8918706,0 L11.4850039,9.13180742 L10.0098658,9.13180742 L7.44593528,2.07221784 L4.8468824,9.13180742 L3.40686661,9.13180742 L0,0 L1.58050513,0 Z"></path>
        </clipPath>
        <clipPath id="i19">
            <path d="M4.32004736,0 C5.54932912,0 6.4976322,0.386345699 7.16495659,1.19415943 C7.86740331,2.00197316 8.18350434,3.09076559 8.18350434,4.4605367 L8.18350434,5.09273875 L1.51026046,5.09273875 C1.54538279,6.14640884 1.86148382,6.95422257 2.38831886,7.51617995 C2.91515391,8.043015 3.65272297,8.32399369 4.63614838,8.32399369 C5.68981847,8.32399369 6.67324388,7.97277032 7.55130229,7.23520126 L8.043015,8.32399369 C7.6566693,8.71033938 7.12983425,8.99131807 6.4976322,9.20205209 C5.86543015,9.41278611 5.2332281,9.51815312 4.60102605,9.51815312 C3.16101026,9.51815312 2.0370955,9.09668508 1.22928177,8.25374901 C0.421468035,7.41081294 0,6.25177585 0,4.77663773 C0,3.82833465 0.175611681,3.02052092 0.526835043,2.28295185 C0.878058406,1.58050513 1.40489345,1.01854775 2.07221784,0.597079716 C2.73954223,0.210734017 3.47711129,0 4.32004736,0 Z M4.32004736,1.19415943 C3.51223362,1.22928177 2.88003157,1.47513812 2.38831886,1.96685083 C1.89660616,2.45856354 1.61562747,3.16101026 1.54538279,4.074191 L6.84885556,4.074191 C6.81373323,3.16101026 6.60299921,2.4234412 6.14640884,1.93172849 C5.72494081,1.44001579 5.09273875,1.19415943 4.32004736,1.19415943 Z"></path>
        </clipPath>
        <clipPath id="i20">
            <path d="M5.02249408,0 L5.16298343,1.33464878 L4.17955801,1.44001579 C3.23125493,1.51026046 2.56393054,1.82636148 2.14246251,2.31807419 C1.72099448,2.8097869 1.51026046,3.44198895 1.51026046,4.17955801 L1.51026046,9.37766377 L0,9.37766377 L0,0.245856354 L1.47513812,0.245856354 L1.47513812,1.82636148 C2.00197316,0.772691397 2.98539858,0.175611681 4.49565904,0.0351223362 L5.02249408,0 Z"></path>
        </clipPath>
        <clipPath id="i21">
            <path d="M4.32004736,0 C5.54932912,0 6.4976322,0.386345699 7.16495659,1.19415943 C7.86740331,2.00197316 8.18350434,3.09076559 8.18350434,4.4605367 L8.18350434,5.09273875 L1.51026046,5.09273875 C1.54538279,6.14640884 1.86148382,6.95422257 2.38831886,7.51617995 C2.91515391,8.043015 3.65272297,8.32399369 4.63614838,8.32399369 C5.68981847,8.32399369 6.67324388,7.97277032 7.55130229,7.23520126 L8.043015,8.32399369 C7.6566693,8.71033938 7.12983425,8.99131807 6.4976322,9.20205209 C5.86543015,9.41278611 5.2332281,9.51815312 4.60102605,9.51815312 C3.16101026,9.51815312 2.0370955,9.09668508 1.22928177,8.25374901 C0.421468035,7.41081294 0,6.25177585 0,4.77663773 C0,3.82833465 0.175611681,3.02052092 0.526835043,2.28295185 C0.878058406,1.58050513 1.40489345,1.01854775 2.07221784,0.597079716 C2.73954223,0.210734017 3.47711129,0 4.32004736,0 Z M4.35516969,1.19415943 C3.54735596,1.22928177 2.88003157,1.47513812 2.4234412,1.96685083 C1.93172849,2.45856354 1.6507498,3.16101026 1.58050513,4.074191 L6.8839779,4.074191 C6.84885556,3.16101026 6.63812155,2.4234412 6.18153118,1.93172849 C5.76006314,1.44001579 5.12786109,1.19415943 4.35516969,1.19415943 Z"></path>
        </clipPath>
        <clipPath id="i22">
            <path d="M8.60497238,0 L8.60497238,13.2059984 L7.09471192,13.2059984 L7.09471192,11.5552486 C6.81373323,12.117206 6.42738753,12.5737964 5.90055249,12.8898974 C5.37371744,13.2059984 4.74151539,13.3464878 4.03906867,13.3464878 C3.23125493,13.3464878 2.52880821,13.1357537 1.93172849,12.7494081 C1.33464878,12.3630624 0.842936069,11.801105 0.491712707,11.0635359 C0.140489345,10.3610892 0,9.51815312 0,8.56985004 C0,7.62154696 0.175611681,6.81373323 0.491712707,6.1112865 C0.842936069,5.40883978 1.29952644,4.8468824 1.93172849,4.4605367 C2.52880821,4.074191 3.26637727,3.86345699 4.03906867,3.86345699 C4.74151539,3.86345699 5.37371744,4.00394633 5.90055249,4.32004736 C6.42738753,4.63614838 6.84885556,5.09273875 7.09471192,5.65469613 L7.09471192,0 L8.60497238,0 Z M4.32004736,5.16298343 C3.44198895,5.16298343 2.73954223,5.47908445 2.24782952,6.07616417 C1.75611681,6.67324388 1.51026046,7.51617995 1.51026046,8.60497238 C1.51026046,9.72888713 1.75611681,10.5718232 2.24782952,11.2040253 C2.73954223,11.8362273 3.44198895,12.117206 4.32004736,12.117206 C5.19810576,12.117206 5.86543015,11.801105 6.35714286,11.2040253 C6.84885556,10.6069455 7.09471192,9.72888713 7.09471192,8.64009471 C7.09471192,7.51617995 6.84885556,6.67324388 6.35714286,6.07616417 C5.86543015,5.47908445 5.19810576,5.16298343 4.32004736,5.16298343 Z"></path>
        </clipPath>
        <clipPath id="i23">
            <path d="M1.51026046,0 L1.51026046,5.65469613 C1.79123915,5.09273875 2.17758485,4.63614838 2.70441989,4.32004736 C3.23125493,4.00394633 3.86345699,3.86345699 4.56590371,3.86345699 C5.33859511,3.82833465 6.04104183,4.03906867 6.67324388,4.42541436 C7.2703236,4.81176006 7.76203631,5.37371744 8.11325967,6.07616417 C8.46448303,6.77861089 8.60497238,7.62154696 8.60497238,8.5347277 C8.60497238,9.48303078 8.42936069,10.3259669 8.11325967,11.0284136 C7.76203631,11.7308603 7.30544594,12.2928177 6.67324388,12.7142857 C6.07616417,13.1006314 5.33859511,13.3113654 4.56590371,13.3113654 C3.86345699,13.3113654 3.23125493,13.1708761 2.70441989,12.8547751 C2.17758485,12.538674 1.75611681,12.0820837 1.51026046,11.5201263 L1.51026046,13.2059984 L0,13.2059984 L0,0 L1.51026046,0 Z M4.21468035,5.09273875 C3.30149961,5.09273875 2.63417522,5.40883978 2.17758485,6.00591949 C1.68587214,6.60299921 1.44001579,7.44593528 1.44001579,8.56985004 C1.44001579,9.6937648 1.68587214,10.5367009 2.17758485,11.1337806 C2.66929755,11.7308603 3.33662194,12.0469613 4.21468035,12.0469613 C5.09273875,12.0469613 5.83030781,11.7659826 6.28689818,11.1337806 C6.77861089,10.5015785 7.02446725,9.65864246 7.02446725,8.5347277 C7.02446725,7.44593528 6.77861089,6.60299921 6.28689818,6.00591949 C5.79518548,5.40883978 5.12786109,5.09273875 4.21468035,5.09273875 Z"></path>
        </clipPath>
        <clipPath id="i24">
            <path d="M9.27229676,0 L3.86345699,12.5035517 L2.31807419,12.5035517 L3.86345699,9.02644041 L0,0.0351223362 L1.61562747,0.0351223362 L4.67127072,7.48105762 L7.76203631,0 L9.27229676,0 Z"></path>
        </clipPath>
    </defs>
    <g transform="translate(0.0 2.212707182320422)">
        <g transform="translate(99.12184131813683 27.746645619573805)">
            <g transform="translate(0.0 0.7375690607734846)">
                <g clip-path="url(#i0)">
                    <polygon points="0,0 27.1144436,0 27.1144436,30.3459734 0,30.3459734 0,0" stroke="none" fill="#ffffff"></polygon>
                </g>
            </g>
            <g transform="translate(30.064719810575298 7.726913970007889)">
                <g clip-path="url(#i1)">
                    <polygon points="0,1.77635684e-15 22.0919495,1.77635684e-15 22.0919495,23.3914759 0,23.3914759 0,1.77635684e-15" stroke="none" fill="#ffffff"></polygon>
                </g>
            </g>
            <g transform="translate(56.863062352013 7.681264978172578)">
                <g clip-path="url(#i2)">
                    <polygon points="0,-8.8817842e-16 13.5923441,-8.8817842e-16 13.5923441,22.9454122 0,22.9454122 0,-8.8817842e-16" stroke="none" fill="#ffffff"></polygon>
                </g>
            </g>
            <g transform="translate(72.70323599052881 7.726913970007889)">
                <g clip-path="url(#i1)">
                    <polygon points="0,1.77635684e-15 22.0919495,1.77635684e-15 22.0919495,23.3914759 0,23.3914759 0,1.77635684e-15" stroke="none" fill="#ffffff"></polygon>
                </g>
            </g>
            <g transform="translate(99.5015785319656 0.0)">
                <g clip-path="url(#i3)">
                    <polygon points="0,0 23.6724546,0 23.6724546,31.0481452 0,31.0481452 0,0" stroke="none" fill="#ffffff"></polygon>
                </g>
            </g>
            <g transform="translate(127.81018153117661 7.681264978172578)">
                <g clip-path="url(#i4)">
                    <polygon points="0,-8.8817842e-16 13.5923441,-8.8817842e-16 13.5923441,22.9454122 0,22.9454122 0,-8.8817842e-16" stroke="none" fill="#ffffff"></polygon>
                </g>
            </g>
            <g transform="translate(145.230860299921 8.113259668508306)">
                <g clip-path="url(#i5)">
                    <polygon points="0,0 20.6519337,0 20.6519337,22.9000497 0,22.9000497 0,0" stroke="none" fill="#ffffff"></polygon>
                </g>
            </g>
            <g transform="translate(171.5374901341756 7.691791633780598)">
                <g clip-path="url(#i6)">
                    <polygon points="0,0 34.3145225,0 34.3145225,22.8997632 0,22.8997632 0,0" stroke="none" fill="#ffffff"></polygon>
                </g>
            </g>
        </g>
        <g transform="translate(62.102898934554105 27.114443567482283)">
            <g clip-path="url(#i7)">
                <polygon points="0,0 24.7261247,0 24.7261247,33.2257301 0,33.2257301 0,0" stroke="none" fill="url(#i8)"></polygon>
            </g>
        </g>
        <g clip-path="url(#i9)">
            <polygon points="-9.79424875e-15,0 83.6680134,0 83.6680134,86.7872928 -9.79424875e-15,86.7872928 -9.79424875e-15,0" stroke="none" fill="url(#i10)"></polygon>
        </g>
        <g transform="translate(23.046861049787367 23.25098658247831)">
            <g clip-path="url(#i11)">
                <polygon points="0,0 43.4463299,0 43.4463299,43.1359242 0,43.1359242 0,0" stroke="none" fill="#FFFFFF"></polygon>
            </g>
            <g transform="translate(6.460244347461412 5.7485185326409045)">
                <g transform="translate(11.415897107141062 30.379236335155156)">
                    <g clip-path="url(#i12)">
                        <polygon points="1.99840144e-15,-5.44009282e-15 17.7379075,-5.44009282e-15 17.7379075,7.00338308 1.99840144e-15,7.00338308 1.99840144e-15,-5.44009282e-15" stroke="none" fill="#D1D3D3"></polygon>
                    </g>
                </g>
                <g transform="translate(20.25341824134574 14.357157473675366) rotate(-16.66631689028721)">
                    <g clip-path="url(#i13)">
                        <polygon points="0,0 4.98741723,0 4.98741723,4.98741723 0,4.98741723 0,0" stroke="none" fill="#000000"></polygon>
                    </g>
                </g>
                <g clip-path="url(#i14)">
                    <polygon points="-3.55271368e-15,0 24.4271591,0 24.4271591,20.6819431 -3.55271368e-15,20.6819431 -3.55271368e-15,0" stroke="none" fill="url(#i15)"></polygon>
                </g>
            </g>
        </g>
    </g>
    <g transform="translate(101.82626120763962 -7.105427357601002e-15)">
        <g clip-path="url(#i16)">
            <polygon points="0,0 9.62352013,0 9.62352013,13.2059984 0,13.2059984 0,0" stroke="none" fill="#cbc7da"></polygon>
        </g>
        <g transform="translate(11.06353591160224 3.8985793212312387)">
            <g clip-path="url(#i17)">
                <polygon points="0,0 8.67521705,0 8.67521705,9.48303078 0,9.48303078 0,0" stroke="none" fill="#cbc7da"></polygon>
            </g>
        </g>
        <g transform="translate(20.897790055248514 4.109313338595107)">
            <g clip-path="url(#i18)">
                <polygon points="0,0 14.8918706,0 14.8918706,9.13180742 0,9.13180742 0,0" stroke="none" fill="#cbc7da"></polygon>
            </g>
        </g>
        <g transform="translate(37.01894238358273 3.82833464877661)">
            <g clip-path="url(#i19)">
                <polygon points="0,0 8.18350434,0 8.18350434,9.51815312 0,9.51815312 0,0" stroke="none" fill="#cbc7da"></polygon>
            </g>
        </g>
        <g transform="translate(47.450276243094024 3.863456985003932)">
            <g clip-path="url(#i20)">
                <polygon points="0,0 5.16298343,0 5.16298343,9.37766377 0,9.37766377 0,0" stroke="none" fill="#cbc7da"></polygon>
            </g>
        </g>
        <g transform="translate(53.31570639305482 3.82833464877661)">
            <g clip-path="url(#i21)">
                <polygon points="0,0 8.18350434,0 8.18350434,9.51815312 0,9.51815312 0,0" stroke="none" fill="#cbc7da"></polygon>
            </g>
        </g>
        <g transform="translate(63.2553275453829 0.0)">
            <g clip-path="url(#i22)">
                <polygon points="0,0 8.60497238,0 8.60497238,13.3464878 0,13.3464878 0,0" stroke="none" fill="#cbc7da"></polygon>
            </g>
        </g>
        <g transform="translate(79.55209155485403 0.03512233622727301)">
            <g clip-path="url(#i23)">
                <polygon points="0,0 8.60497238,0 8.60497238,13.3113654 0,13.3113654 0,0" stroke="none" fill="#cbc7da"></polygon>
            </g>
        </g>
        <g transform="translate(89.070244672455 4.109313338595107)">
            <g clip-path="url(#i24)">
                <polygon points="0,0 9.27229676,0 9.27229676,12.5035517 0,12.5035517 0,0" stroke="none" fill="#cbc7da"></polygon>
            </g>
        </g>
    </g>
</svg>